<svg xmlns="http://www.w3.org/2000/svg" fill="none" viewBox="0 0 201 201"><g clip-path="url(#clip0_126_5)"><path fill="#4DC0B5" d="M100.5 201c55.505 0 100.5-44.995 100.5-100.5S156.005 0 100.5 0 0 44.995 0 100.5 44.995 201 100.5 201Z"/><g fill="#fff" clip-path="url(#clip1_126_5)"><path d="M43 100c0 2.402.136 4.78.43 7.114.295 2.334 2.198 4.101 4.532 4.395l5.165.657c1.45.182 2.651 1.224 3.104 2.629a45.536 45.536 0 0 0 2.56 6.23c.657 1.314.544 2.877-.34 4.033l-3.217 4.123c-1.45 1.858-1.54 4.441-.113 6.299a57.516 57.516 0 0 0 10.06 10.127c1.857 1.45 4.463 1.359 6.32-.091l4.079-3.171c1.155-.907 2.764-.997 4.078-.34a45.47 45.47 0 0 0 6.32 2.65c1.383.476 2.425 1.654 2.606 3.104l.657 5.234c.295 2.334 2.04 4.237 4.373 4.531 2.424.317 4.916.476 7.431.476 2.289 0 4.554-.136 6.775-.385 2.356-.272 4.123-2.198 4.418-4.531l.634-5.098c.181-1.473 1.246-2.674 2.651-3.127a47.55 47.55 0 0 0 6.57-2.673c1.314-.657 2.877-.544 4.033.34l4.101 3.217c1.857 1.45 4.44 1.541 6.298.113a60.479 60.479 0 0 0 1.858-1.518l6.955-6.955 1.224-1.496c1.472-1.857 1.359-4.463-.091-6.321l-3.172-4.055c-.906-1.156-.997-2.764-.34-4.078a45.658 45.658 0 0 0 2.787-6.684c.453-1.404 1.654-2.447 3.104-2.628l5.166-.634c2.333-.295 4.259-2.062 4.531-4.396l.136-1.178V94.155l-.136-1.178c-.295-2.334-2.198-4.101-4.531-4.396l-5.166-.634c-1.45-.181-2.651-1.224-3.104-2.628a48.18 48.18 0 0 0-2.787-6.684c-.679-1.314-.566-2.9.34-4.078l3.172-4.055c1.45-1.858 1.541-4.464.091-6.322l-1.224-1.495-6.955-7.023a61.075 61.075 0 0 0-1.858-1.518c-1.858-1.45-4.441-1.337-6.298.113l-4.147 3.217c-1.155.907-2.741.997-4.032.34a47.49 47.49 0 0 0-6.571-2.673c-1.404-.453-2.469-1.654-2.65-3.104l-.635-5.098c-.294-2.356-2.062-4.26-4.418-4.531A55.772 55.772 0 0 0 101 42a57.4 57.4 0 0 0-7.431.476c-2.334.294-4.078 2.197-4.373 4.531l-.657 5.234c-.181 1.45-1.223 2.628-2.605 3.103a47.103 47.103 0 0 0-6.322 2.651c-1.314.68-2.9.567-4.078-.34l-4.078-3.171c-1.858-1.45-4.463-1.541-6.32-.091a57.508 57.508 0 0 0-10.06 10.127c-1.428 1.858-1.337 4.44.113 6.299l3.217 4.146c.907 1.155.997 2.719.34 4.033a45.23 45.23 0 0 0-2.56 6.207c-.453 1.405-1.654 2.447-3.104 2.629l-5.166.657c-2.333.294-4.236 2.061-4.53 4.395-.227 2.31-.386 4.69-.386 7.114Zm28.252-2.56 9.063-9.063a3.638 3.638 0 0 1 5.12 0 3.638 3.638 0 0 1 0 5.12L78.933 100l6.502 6.502a3.638 3.638 0 0 1 0 5.121 3.639 3.639 0 0 1-5.12 0l-9.063-9.063a3.638 3.638 0 0 1 0-5.12Zm22.543 23.721c2.424-14.5 4.826-29 7.25-43.5a3.642 3.642 0 0 1 4.169-2.99 3.65 3.65 0 0 1 2.991 4.168c-2.425 14.5-4.826 29-7.25 43.5a3.65 3.65 0 0 1-4.17 2.991c-1.97-.318-3.307-2.198-2.99-4.169Zm22.77-32.784a3.637 3.637 0 0 1 5.12 0l9.063 9.063a3.622 3.622 0 0 1 1.064 2.56 3.62 3.62 0 0 1-1.064 2.56l-9.063 9.063a3.638 3.638 0 0 1-5.12 0 3.638 3.638 0 0 1 0-5.121l6.502-6.502-6.502-6.502a3.637 3.637 0 0 1 0-5.12Z" opacity=".4"/><path d="M105.214 74.67a3.65 3.65 0 0 1 2.991 4.17l-7.25 43.499a3.65 3.65 0 0 1-4.17 2.991c-1.97-.318-3.307-2.198-2.99-4.169l7.25-43.5a3.65 3.65 0 0 1 4.169-2.99ZM85.435 88.377a3.638 3.638 0 0 1 0 5.12L78.933 100l6.502 6.502a3.638 3.638 0 0 1 0 5.121 3.639 3.639 0 0 1-5.12 0l-9.063-9.063a3.638 3.638 0 0 1 0-5.12l9.063-9.063a3.638 3.638 0 0 1 5.12 0Zm31.13 0a3.637 3.637 0 0 1 5.12 0l9.063 9.063a3.639 3.639 0 0 1 0 5.12l-9.063 9.063a3.638 3.638 0 0 1-5.12 0 3.638 3.638 0 0 1 0-5.121l6.502-6.502-6.502-6.502a3.637 3.637 0 0 1 0-5.12Z"/></g></g><defs><clipPath id="clip0_126_5"><path fill="#fff" d="M0 0h201v201H0z"/></clipPath><clipPath id="clip1_126_5"><path fill="#fff" d="M43 42h116v116H43z"/></clipPath></defs></svg>
